<svg xmlns="http://www.w3.org/2000/svg" viewBox="0 0 20.83 20.83"><defs><style>.cls-1{fill:none;stroke:#404040;stroke-miterlimit:10;stroke-width:0.83px;}</style></defs><g id="Layer_2" data-name="Layer 2"><g id="Layer_1-2" data-name="Layer 1"><path class="cls-1" d="M18.75,18.33v1.25a.84.84,0,0,1-.83.84H16.25a.84.84,0,0,1-.83-.84v-.83"/><path class="cls-1" d="M5.42,18.75v.83a.85.85,0,0,1-.84.84H2.92a.85.85,0,0,1-.84-.84V18.33"/><path class="cls-1" d="M19.17,3.75c0-2.15-.42-3.33-2.5-3.33H5c-2.5,0-3.33.71-3.33,2.91V17.08c0,1.38,1.12,1.67,2.5,1.67h12.5c1.38,0,2.5-.29,2.5-1.67V3.75Z"/><circle class="cls-1" cx="16.04" cy="15.62" r="1.46"/><circle class="cls-1" cx="4.79" cy="15.62" r="1.46"/><path class="cls-1" d="M19.17,5.42H20a.41.41,0,0,1,.42.41V9.17a.41.41,0,0,1-.42.41h-.83"/><path class="cls-1" d="M1.67,5.42H.83a.41.41,0,0,0-.41.41V9.17a.41.41,0,0,0,.41.41h.84"/><path class="cls-1" d="M15.42,2.92a.41.41,0,0,1-.42.41H6.25a.41.41,0,0,1-.42-.41V2.08a.41.41,0,0,1,.42-.41H15a.41.41,0,0,1,.42.41Z"/><path class="cls-1" d="M16.25,12.05l-11.67,0a1.1,1.1,0,0,1-1.25-1.25v-5A1.11,1.11,0,0,1,4.58,4.58H16.25A1.11,1.11,0,0,1,17.5,5.83v5A1.28,1.28,0,0,1,16.25,12.05Z"/></g></g></svg>