<svg xmlns="http://www.w3.org/2000/svg" viewBox="0 0 15 20"><defs><style>.cls-1{fill:#404040;}</style></defs><g id="Layer_2" data-name="Layer 2"><g id="Layer_1-2" data-name="Layer 1"><g id="Layer_1-3" data-name="Layer 1"><path class="cls-1" d="M1.67,16.45v2.72H0V20H15v-.83H13.33V16.45a2.89,2.89,0,0,0-.85-2.06L8.09,10l4.39-4.39a2.89,2.89,0,0,0,.85-2.06V.83H15V0H0V.83H1.67V3.55a2.89,2.89,0,0,0,.85,2.06L6.91,10,2.52,14.39A2.89,2.89,0,0,0,1.67,16.45ZM3.11,5A2.08,2.08,0,0,1,2.5,3.55V.83h10V3.55A2.08,2.08,0,0,1,11.89,5L7.5,9.41ZM7.5,10.59,11.89,15a2.08,2.08,0,0,1,.61,1.47v2.72H2.5V16.45A2.08,2.08,0,0,1,3.11,15Z"/></g></g></g></svg>