<svg xmlns="http://www.w3.org/2000/svg" viewBox="0 0 20.87 15.65"><defs><style>.cls-1{fill:none;stroke:#404040;stroke-miterlimit:10;stroke-width:0.87px;}</style></defs><g id="Layer_2" data-name="Layer 2"><g id="Layer_1-2" data-name="Layer 1"><path class="cls-1" d="M10.43,9.13a4.34,4.34,0,0,0,4.35-4.35A4.35,4.35,0,1,0,7.36,7.86,4.36,4.36,0,0,0,10.43,9.13Z"/><path class="cls-1" d="M17.39,10a2.19,2.19,0,0,0,2.18-2.17,2.19,2.19,0,0,0-.64-1.54A2.17,2.17,0,1,0,17.39,10Z"/><path class="cls-1" d="M17.39,10.51a3.68,3.68,0,0,0-2.54.84A7,7,0,0,0,10.43,10,6.81,6.81,0,0,0,6,11.36a3.68,3.68,0,0,0-2.53-.85c-1.9,0-3,1-3,1.9,0,.47,1.15.95,3.05.95a7.57,7.57,0,0,0,1.41-.12,2,2,0,0,0,0,.24c0,.87,2.1,1.74,5.58,1.74,3.28,0,5.58-.87,5.58-1.74a1.62,1.62,0,0,0,0-.22,9.33,9.33,0,0,0,1.39.1c1.78,0,3-.48,3-.95C20.43,11.46,19.24,10.51,17.39,10.51Z"/><path class="cls-1" d="M3.48,10A2.18,2.18,0,0,0,5,6.29,2.18,2.18,0,0,0,1.3,7.83,2.19,2.19,0,0,0,3.48,10Z"/></g></g></svg>