<svg xmlns="http://www.w3.org/2000/svg" viewBox="0 0 20 20"><defs><style>.cls-1{fill:#404040;}</style></defs><g id="Layer_2" data-name="Layer 2"><g id="Layer_1-2" data-name="Layer 1"><path class="cls-1" d="M10,0A10,10,0,1,0,20,10,10,10,0,0,0,10,0ZM8.64.68A14.61,14.61,0,0,0,6.28,4.87,13.84,13.84,0,0,1,3.1,3.59,9.35,9.35,0,0,1,8.64.68Zm-6,3.46A14.69,14.69,0,0,0,6.05,5.55a14.77,14.77,0,0,0-.67,4.09H.58A9.35,9.35,0,0,1,2.63,4.14Zm-2,6.21h4.8a14.78,14.78,0,0,0,.67,4.1,14.69,14.69,0,0,0-3.42,1.41A9.35,9.35,0,0,1,.58,10.35ZM3.1,16.41a14.34,14.34,0,0,1,3.18-1.29,14.77,14.77,0,0,0,2.36,4.2A9.35,9.35,0,0,1,3.1,16.41Zm6.55,3A14.23,14.23,0,0,1,7,15a15.09,15.09,0,0,1,2.68-.32Zm0-5.48a15,15,0,0,0-2.91.35,14,14,0,0,1-.65-3.93H9.65Zm0-4.28H6.09a14,14,0,0,1,.65-3.93,14.93,14.93,0,0,0,2.91.35Zm0-4.29A14.22,14.22,0,0,1,7,5,14.08,14.08,0,0,1,9.65.58Zm9.77,4.29h-4.8A15.48,15.48,0,0,0,14,5.55a14.77,14.77,0,0,0,3.43-1.41A9.41,9.41,0,0,1,19.42,9.65ZM16.9,3.59a14.34,14.34,0,0,1-3.18,1.29A15.08,15.08,0,0,0,11.36.68,9.35,9.35,0,0,1,16.9,3.59Zm-6.54-3A14.39,14.39,0,0,1,13,5.05a15.09,15.09,0,0,1-2.67.32Zm0,5.48a15,15,0,0,0,2.9-.35,14.17,14.17,0,0,1,.65,3.92H10.36Zm0,4.28h3.55a14.63,14.63,0,0,1-.65,3.93,15.86,15.86,0,0,0-2.9-.36Zm0,4.29A13.43,13.43,0,0,1,13,15a14.5,14.5,0,0,1-2.67,4.46Zm1,4.68a14.83,14.83,0,0,0,2.36-4.2,14.61,14.61,0,0,1,3.19,1.29A9.4,9.4,0,0,1,11.36,19.32Zm6-3.46a14.59,14.59,0,0,0-3.43-1.41,14.65,14.65,0,0,0,.67-4.1h4.8A9.28,9.28,0,0,1,17.37,15.86Z"/></g></g></svg>