<svg xmlns="http://www.w3.org/2000/svg" viewBox="0 0 20 18.75"><defs><style>.cls-1{fill:#faad17;}</style></defs><g id="Layer_2" data-name="Layer 2"><g id="Layer_1-2" data-name="Layer 1"><g id="Icon-Like"><path id="Fill-4" class="cls-1" d="M20,9.54c0-1.33-1-2-2.5-2H13.29a13,13,0,0,0,.46-3.12c0-3.63-1-4.38-1.87-4.38a2.5,2.5,0,0,0-1.59.42A.58.58,0,0,0,10,.83L9.38,4.21A11,11,0,0,1,5.63,8.58V17.5A3.81,3.81,0,0,1,7.21,18a4.89,4.89,0,0,0,2.17.67h5.95a2.12,2.12,0,0,0,2.17-1.88,1.68,1.68,0,0,0,0-.46,1.84,1.84,0,0,0,1.29-1.7,2.1,2.1,0,0,0-.21-1,2,2,0,0,0,1-1.54,1.77,1.77,0,0,0-.42-1.05A2.09,2.09,0,0,0,20,9.54Zm-1.29,0c0,.79-.84.88-1,1.25s.5.58.5,1.34-1,.79-1.08,1.16.29.63.29,1.38v.12c-.13.63-1.08.67-1.25.92s0,.46,0,1.12c0,.38-.42.63-.92.63H9.38a3.8,3.8,0,0,1-1.59-.54,7.34,7.34,0,0,0-1.54-.63V9.67a12.55,12.55,0,0,0,4.33-5.13s0-.08,0-.08l.59-3.13a1.8,1.8,0,0,1,.71-.08c.12,0,.62.75.62,3.13A11.29,11.29,0,0,1,12,7.5h-.16a.63.63,0,1,0,0,1.25H17.5c.63,0,1.21.29,1.21.79Z"/><path id="Fill-6" class="cls-1" d="M5,18.75H1.25A1.23,1.23,0,0,1,0,17.5V8.75A1.23,1.23,0,0,1,1.25,7.5H5A1.23,1.23,0,0,1,6.25,8.75V17.5A1.23,1.23,0,0,1,5,18.75Zm-3.75-10V17.5H5V8.75Z"/></g></g></g></svg>