<svg xmlns="http://www.w3.org/2000/svg" viewBox="0 0 11.07 14.65"><defs><style>.cls-1{fill:#39b54a;}</style></defs><g id="Layer_2" data-name="Layer 2"><g id="Layer_1-2" data-name="Layer 1"><path class="cls-1" d="M10.09,14.65H1a1,1,0,0,1-1-1V6.51a1,1,0,0,1,1-1h9.11a1,1,0,0,1,1,1v7.16A1,1,0,0,1,10.09,14.65ZM1,6.19a.32.32,0,0,0-.33.32v7.16A.33.33,0,0,0,1,14h9.11a.33.33,0,0,0,.33-.33V6.51a.32.32,0,0,0-.33-.32Z"/><path class="cls-1" d="M8.79,6.19a.32.32,0,0,1-.32-.33V3.58a2.94,2.94,0,0,0-5.87,0V5.86a.32.32,0,0,1-.32.33A.33.33,0,0,1,2,5.86V3.58a3.59,3.59,0,0,1,7.17,0V5.86A.33.33,0,0,1,8.79,6.19Z"/><path class="cls-1" d="M6.51,9.44a1,1,0,0,0-1.95,0,1,1,0,0,0,.32.73v.9a.66.66,0,0,0,1.31,0v-.9A1,1,0,0,0,6.51,9.44Z"/></g></g></svg>