<svg xmlns="http://www.w3.org/2000/svg" viewBox="0 0 14.22 20"><defs><style>.cls-1{fill:#404040;}</style></defs><g id="Layer_2" data-name="Layer 2"><g id="Layer_1-2" data-name="Layer 1"><path class="cls-1" d="M11.94,0H2.27A2.27,2.27,0,0,0,0,2.25v15.5A2.26,2.26,0,0,0,2.27,20h9.67a2.27,2.27,0,0,0,2.28-2.25V2.25A2.26,2.26,0,0,0,11.94,0Zm1.57,17.75a1.55,1.55,0,0,1-1.57,1.55H2.27A1.58,1.58,0,0,1,.7,17.75V2.25A1.56,1.56,0,0,1,2.27.7h9.67a1.57,1.57,0,0,1,1.57,1.55Z"/><path class="cls-1" d="M10,2.22H4.19a.36.36,0,0,0,0,.71H10a.37.37,0,0,0,.35-.35A.37.37,0,0,0,10,2.22Z"/><path class="cls-1" d="M7.1,15.64a1.17,1.17,0,0,0-1.17,1.17,1.07,1.07,0,0,0,.35.82A1.12,1.12,0,0,0,7.1,18h0a1.18,1.18,0,0,0,1.17-1.17A1.16,1.16,0,0,0,7.1,15.64Zm0,1.64h0a.45.45,0,0,1-.33-.14.46.46,0,0,1,.33-.79h0a.47.47,0,1,1,0,.93Z"/></g></g></svg>